<svg width="233" height="60" viewBox="0 0 233 60" fill="none" xmlns="http://www.w3.org/2000/svg">
<path d="M7.43656 35.04V31.104H16.5086C17.7566 31.104 18.8606 30.848 19.8206 30.336C20.8126 29.824 21.5806 29.104 22.1246 28.176C22.7006 27.248 22.9886 26.144 22.9886 24.864C22.9886 23.584 22.7006 22.48 22.1246 21.552C21.5806 20.624 20.8126 19.904 19.8206 19.392C18.8606 18.88 17.7566 18.624 16.5086 18.624H7.43656V14.688H16.7966C18.8446 14.688 20.6686 15.104 22.2686 15.936C23.9006 16.768 25.1806 17.952 26.1086 19.488C27.0686 20.992 27.5486 22.784 27.5486 24.864C27.5486 26.912 27.0686 28.704 26.1086 30.24C25.1806 31.744 23.9006 32.928 22.2686 33.792C20.6686 34.624 18.8446 35.04 16.7966 35.04H7.43656ZM4.41256 48V14.688H8.92456V48H4.41256ZM48.8819 48V34.704C48.8819 32.976 48.3379 31.552 47.2499 30.432C46.1619 29.312 44.7539 28.752 43.0259 28.752C41.8739 28.752 40.8499 29.008 39.9539 29.52C39.0579 30.032 38.3539 30.736 37.8419 31.632C37.3299 32.528 37.0739 33.552 37.0739 34.704L35.2979 33.696C35.2979 31.968 35.6819 30.432 36.4499 29.088C37.2179 27.744 38.2899 26.688 39.6659 25.92C41.0419 25.12 42.5939 24.72 44.3219 24.72C46.0499 24.72 47.5699 25.104 48.8819 25.872C50.2259 26.64 51.2819 27.712 52.0499 29.088C52.8179 30.464 53.2019 32.048 53.2019 33.84V48H48.8819ZM32.7539 48V13.728H37.0739V48H32.7539ZM69.4668 48.48C67.2268 48.48 65.2108 47.952 63.4188 46.896C61.6268 45.84 60.2028 44.416 59.1468 42.624C58.0908 40.8 57.5628 38.768 57.5628 36.528C57.5628 34.32 58.0908 32.336 59.1468 30.576C60.2028 28.784 61.6268 27.36 63.4188 26.304C65.2108 25.248 67.2268 24.72 69.4668 24.72C71.6748 24.72 73.6748 25.248 75.4668 26.304C77.2908 27.328 78.7308 28.736 79.7868 30.528C80.8428 32.32 81.3708 34.32 81.3708 36.528C81.3708 38.768 80.8428 40.8 79.7868 42.624C78.7308 44.416 77.2908 45.84 75.4668 46.896C73.6748 47.952 71.6748 48.48 69.4668 48.48ZM69.4668 44.304C70.9068 44.304 72.1868 43.968 73.3068 43.296C74.4268 42.624 75.3068 41.712 75.9468 40.56C76.5868 39.376 76.9068 38.032 76.9068 36.528C76.9068 35.056 76.5708 33.744 75.8988 32.592C75.2588 31.44 74.3788 30.544 73.2588 29.904C72.1708 29.232 70.9068 28.896 69.4668 28.896C68.0268 28.896 66.7468 29.232 65.6268 29.904C64.5068 30.544 63.6268 31.44 62.9868 32.592C62.3468 33.744 62.0268 35.056 62.0268 36.528C62.0268 38.032 62.3468 39.376 62.9868 40.56C63.6268 41.712 64.5068 42.624 65.6268 43.296C66.7468 43.968 68.0268 44.304 69.4668 44.304ZM89.0392 48V15.648H93.3592V48H89.0392ZM83.4232 29.136V25.2H98.9752V29.136H83.4232ZM112.92 48.48C110.68 48.48 108.664 47.952 106.872 46.896C105.08 45.84 103.656 44.416 102.6 42.624C101.544 40.8 101.016 38.768 101.016 36.528C101.016 34.32 101.544 32.336 102.6 30.576C103.656 28.784 105.08 27.36 106.872 26.304C108.664 25.248 110.68 24.72 112.92 24.72C115.128 24.72 117.128 25.248 118.92 26.304C120.744 27.328 122.184 28.736 123.24 30.528C124.296 32.32 124.824 34.32 124.824 36.528C124.824 38.768 124.296 40.8 123.24 42.624C122.184 44.416 120.744 45.84 118.92 46.896C117.128 47.952 115.128 48.48 112.92 48.48ZM112.92 44.304C114.36 44.304 115.64 43.968 116.76 43.296C117.88 42.624 118.76 41.712 119.4 40.56C120.04 39.376 120.36 38.032 120.36 36.528C120.36 35.056 120.024 33.744 119.352 32.592C118.712 31.44 117.832 30.544 116.712 29.904C115.624 29.232 114.36 28.896 112.92 28.896C111.48 28.896 110.2 29.232 109.08 29.904C107.96 30.544 107.08 31.44 106.44 32.592C105.8 33.744 105.48 35.056 105.48 36.528C105.48 38.032 105.8 39.376 106.44 40.56C107.08 41.712 107.96 42.624 109.08 43.296C110.2 43.968 111.48 44.304 112.92 44.304Z" fill="black"/>
<path d="M140.717 48.48C138.573 48.48 136.653 47.952 134.957 46.896C133.261 45.84 131.917 44.4 130.925 42.576C129.965 40.752 129.485 38.704 129.485 36.432C129.485 34.128 129.965 32.064 130.925 30.24C131.917 28.416 133.245 26.976 134.909 25.92C136.605 24.864 138.541 24.336 140.717 24.336C142.381 24.336 143.869 24.672 145.181 25.344C146.525 26.016 147.597 26.96 148.397 28.176C149.229 29.36 149.677 30.704 149.741 32.208V40.464C149.677 41.968 149.245 43.328 148.445 44.544C147.645 45.76 146.573 46.72 145.229 47.424C143.885 48.128 142.381 48.48 140.717 48.48ZM141.773 42.672C142.957 42.672 143.981 42.416 144.845 41.904C145.741 41.36 146.429 40.624 146.909 39.696C147.421 38.736 147.677 37.632 147.677 36.384C147.677 35.168 147.421 34.096 146.909 33.168C146.429 32.208 145.741 31.472 144.845 30.96C143.981 30.416 142.973 30.144 141.821 30.144C140.637 30.144 139.597 30.416 138.701 30.96C137.837 31.504 137.149 32.24 136.637 33.168C136.157 34.096 135.917 35.168 135.917 36.384C135.917 37.632 136.157 38.736 136.637 39.696C137.149 40.624 137.853 41.36 138.749 41.904C139.645 42.416 140.653 42.672 141.773 42.672ZM153.581 48H147.341V41.76L148.349 36.096L147.293 30.528V13.296H153.581V48ZM168.839 48.48C166.727 48.48 164.823 47.952 163.127 46.896C161.431 45.84 160.103 44.4 159.143 42.576C158.183 40.752 157.703 38.704 157.703 36.432C157.703 34.128 158.183 32.064 159.143 30.24C160.103 28.416 161.431 26.976 163.127 25.92C164.823 24.864 166.727 24.336 168.839 24.336C170.503 24.336 171.991 24.672 173.303 25.344C174.615 26.016 175.655 26.96 176.423 28.176C177.223 29.36 177.655 30.704 177.719 32.208V40.56C177.655 42.096 177.223 43.456 176.423 44.64C175.655 45.824 174.615 46.768 173.303 47.472C171.991 48.144 170.503 48.48 168.839 48.48ZM169.991 42.672C171.751 42.672 173.175 42.096 174.263 40.944C175.351 39.76 175.895 38.24 175.895 36.384C175.895 35.168 175.639 34.096 175.127 33.168C174.647 32.208 173.959 31.472 173.063 30.96C172.199 30.416 171.175 30.144 169.991 30.144C168.839 30.144 167.815 30.416 166.919 30.96C166.055 31.472 165.367 32.208 164.855 33.168C164.375 34.096 164.135 35.168 164.135 36.384C164.135 37.632 164.375 38.736 164.855 39.696C165.367 40.624 166.055 41.36 166.919 41.904C167.815 42.416 168.839 42.672 169.991 42.672ZM175.559 48V41.76L176.567 36.096L175.559 30.528V24.816H181.799V48H175.559ZM195.33 48.528C194.018 48.528 192.722 48.352 191.442 48C190.194 47.648 189.042 47.168 187.986 46.56C186.93 45.92 186.018 45.152 185.25 44.256L188.994 40.464C189.794 41.36 190.722 42.032 191.778 42.48C192.834 42.928 194.002 43.152 195.282 43.152C196.306 43.152 197.074 43.008 197.586 42.72C198.13 42.432 198.402 42 198.402 41.424C198.402 40.784 198.114 40.288 197.538 39.936C196.994 39.584 196.274 39.296 195.378 39.072C194.482 38.816 193.538 38.544 192.546 38.256C191.586 37.936 190.658 37.536 189.762 37.056C188.866 36.544 188.13 35.856 187.554 34.992C187.01 34.096 186.738 32.944 186.738 31.536C186.738 30.064 187.09 28.784 187.794 27.696C188.53 26.608 189.57 25.76 190.914 25.152C192.258 24.544 193.842 24.24 195.666 24.24C197.586 24.24 199.314 24.576 200.85 25.248C202.418 25.92 203.714 26.928 204.738 28.272L200.946 32.064C200.242 31.2 199.442 30.576 198.546 30.192C197.682 29.808 196.738 29.616 195.714 29.616C194.786 29.616 194.066 29.76 193.554 30.048C193.074 30.336 192.834 30.736 192.834 31.248C192.834 31.824 193.106 32.272 193.65 32.592C194.226 32.912 194.962 33.2 195.858 33.456C196.754 33.68 197.682 33.952 198.642 34.272C199.634 34.56 200.562 34.976 201.426 35.52C202.322 36.064 203.042 36.784 203.586 37.68C204.162 38.576 204.45 39.728 204.45 41.136C204.45 43.408 203.634 45.216 202.002 46.56C200.37 47.872 198.146 48.528 195.33 48.528ZM224.29 48V34.704C224.29 33.328 223.858 32.208 222.994 31.344C222.13 30.48 221.01 30.048 219.634 30.048C218.738 30.048 217.938 30.24 217.234 30.624C216.53 31.008 215.97 31.552 215.554 32.256C215.17 32.96 214.978 33.776 214.978 34.704L212.53 33.456C212.53 31.632 212.914 30.048 213.682 28.704C214.45 27.328 215.506 26.256 216.85 25.488C218.226 24.72 219.794 24.336 221.554 24.336C223.314 24.336 224.866 24.72 226.21 25.488C227.586 26.256 228.658 27.312 229.426 28.656C230.194 30 230.578 31.552 230.578 33.312V48H224.29ZM208.69 48V13.296H214.978V48H208.69Z" fill="black"/>
</svg>
